<?xml version="1.0" encoding="UTF-8" standalone="no"?>
<svg
   xmlns:dc="http://purl.org/dc/elements/1.1/"
   xmlns:cc="http://creativecommons.org/ns#"
   xmlns:rdf="http://www.w3.org/1999/02/22-rdf-syntax-ns#"
   xmlns:svg="http://www.w3.org/2000/svg"
   xmlns="http://www.w3.org/2000/svg"
   xmlns:sodipodi="http://sodipodi.sourceforge.net/DTD/sodipodi-0.dtd"
   xmlns:inkscape="http://www.inkscape.org/namespaces/inkscape"
   xml:space="preserve"
   width="1992"
   height="465"
   version="1.1"
   style="clip-rule:evenodd;fill-rule:evenodd;image-rendering:optimizeQuality;shape-rendering:geometricPrecision;text-rendering:geometricPrecision"
   viewBox="0 0 1992 464.95482"
   id="svg56"
   sodipodi:docname="SOFTENGE_logomarca.svg"
   inkscape:version="1.0.1 (3bc2e813f5, 2020-09-07)"><metadata
   id="metadata60"><rdf:RDF><cc:Work
       rdf:about=""><dc:format>image/svg+xml</dc:format><dc:type
         rdf:resource="http://purl.org/dc/dcmitype/StillImage" /><dc:title></dc:title></cc:Work></rdf:RDF></metadata><sodipodi:namedview
   pagecolor="#333333"
   bordercolor="#666666"
   borderopacity="1"
   objecttolerance="10"
   gridtolerance="10"
   guidetolerance="10"
   inkscape:pageopacity="0"
   inkscape:pageshadow="2"
   inkscape:window-width="1496"
   inkscape:window-height="1008"
   id="namedview58"
   showgrid="false"
   inkscape:zoom="0.25695284"
   inkscape:cx="1538.1868"
   inkscape:cy="41.620522"
   inkscape:window-x="2104"
   inkscape:window-y="0"
   inkscape:window-maximized="0"
   inkscape:current-layer="svg56"
   inkscape:document-rotation="0" />
 <defs
   id="defs26">
  <style
   type="text/css"
   id="style2">
   <![CDATA[
    .fil4 {fill:none}
    .fil3 {fill:#FEFEFE}
    .fil5 {fill:#F58634}
    .fil2 {fill:#4E5A62}
    .fil1 {fill:#F58634;fill-rule:nonzero}
    .fil0 {fill:#4E5A62;fill-rule:nonzero}
   ]]>
  </style>
    <clipPath
   id="id0">
     <path
   d="M 323.581,986.723 180.309,837.672 c -19.199,-19.972 -19.199,-52.655 0,-72.628 L 344.875,593.84 c 14.364,-14.941 35.562,-18.703 53.37,-11.29 l -65.006,67.636 -68.078,70.834 c -45.454,47.295 -48.668,91.131 -9.744,131.616 l 20.265,20.244 c 38.42,39.965 80.205,36.454 125.358,-10.525 l -37.122,-38.612 c 15.685,-12.778 32.315,-10.095 49.883,7.898 19.463,20.558 20.669,39.705 3.523,57.544 l -26.446,27.517 z"
   id="path4" />
    </clipPath>
      <mask
   id="id1">
  <linearGradient
   id="id2"
   gradientUnits="userSpaceOnUse"
   x1="366.92599"
   y1="593.48901"
   x2="366.92599"
   y2="896.59399">
   <stop
   offset="0"
   style="stop-opacity:1; stop-color:white"
   id="stop7" />
   <stop
   offset="1"
   style="stop-opacity:0; stop-color:white"
   id="stop9" />
  </linearGradient>
       <rect
   style="fill:url(#id2)"
   x="98.142998"
   y="735.63599"
   width="563.27899"
   height="405.41"
   id="rect12" />
      </mask>
    <clipPath
   id="id3">
     <path
   d="m 439.559,619.709 139.699,145.335 c 19.199,19.973 19.199,52.656 0,72.628 l -164.566,171.204 c -12.947,13.468 -31.451,17.851 -48.018,13.155 l 17.924,-18.648 68.13,-70.888 c 45.404,-47.241 48.669,-91.13 9.747,-131.614 L 442.209,780.636 C 403.787,740.673 362.003,744.182 316.853,791.16 l 37.068,38.559 c -15.684,12.796 -32.306,10.195 -49.834,-7.845 -19.51,-20.506 -20.671,-39.703 -3.524,-57.542 l 26.447,-27.52 z"
   id="path15" />
    </clipPath>
      <mask
   id="id4">
  <linearGradient
   id="id5"
   gradientUnits="userSpaceOnUse"
   x1="366.92599"
   y1="593.48901"
   x2="366.92599"
   y2="896.59399">
   <stop
   offset="0"
   style="stop-opacity:1; stop-color:white"
   id="stop18" />
   <stop
   offset="1"
   style="stop-opacity:0; stop-color:white"
   id="stop20" />
  </linearGradient>
       <rect
   style="fill:url(#id5)"
   x="98.142998"
   y="735.63599"
   width="563.27899"
   height="405.41"
   id="rect23" />
      </mask>
 
  
  
  
  
 
   
   
   
   
   
   
  
   
   
  </defs>
 <path
   class="fil0"
   d="m 796.76341,160.74535 c 54.656,0 81.962,24.13 81.962,72.396 0,48.298 -27.13,72.464 -81.391,72.561 -54.262,0.065 -81.364,-24.009 -81.364,-72.31 0,-48.267 26.919,-72.494 80.793,-72.647 z m -126.988,118.679 c 10.256,0 15.403,-5.866 15.488,-17.593 -0.085,-11.557 -5.232,-17.359 -15.488,-17.359 h -1.843 -0.028 l -82.075,-0.214 c -26.772,-0.097 -39.699,-11.589 -40.163,-34.467 l -0.241,-11.88 c 0,-23.283 13.567,-34.925 40.755,-34.925 h 40.728 81.519 l 0.238,23.039 h -108.524 -15.823 c -10.256,0 -15.494,5.867 -15.494,17.597 0,11.553 5.238,17.298 15.494,17.326 l 83.586,0.241 h 0.131 v 0 c 26.925,0.039 40.392,11.525 40.392,34.467 l 0.238,11.889 c 0,23.28 -13.592,34.919 -40.761,34.919 h -40.752 -81.486 l -0.241,-23.04 h 108.526 z m 216.215,-58.098 v -36.201 -24.028 -0.101 h 163.00199 v 24.129 H 909.27041 v 36.201 h 139.48399 v 24.132 H 909.27041 v 30.059 30.057 h -23.28 v -60.116 -9.102 z m -30.539,11.815 c 0,-32.177 -19.374,-48.233 -58.117,-48.141 -38.894,-0.092 -58.328,15.964 -58.328,48.141 0,32.212 19.404,48.298 58.212,48.298 38.826,0 58.233,-16.086 58.233,-48.298 z m 200.56199,-72.145 h 162.999 v 24.129 h -69.872 v 120.449 h -23.042 v -120.449 h -70.085 z"
   id="path29"
   style="fill:#ffffff;fill-opacity:1" /><path
   class="fil1"
   d="m 1424.7104,245.46135 h -139.479 v 36.231 h 139.479 v 24.133 h -162.76 v -0.593 -23.54 -36.231 -24.134 -36.201 -22.553 -1.579 h 163 v 24.132 h -139.719 v 36.201 h 139.479 z m 308.025,0.248 v -24.133 h 34.005 21.877 1.405 v 66.133 18.116 h -81.966 c -53.872,-0.156 -80.793,-24.382 -80.793,-72.68 0,-48.268 27.101,-72.37 81.365,-72.276 l 81.394,-0.375 v 24.632 h -81.515 c -38.802,0 -58.204,16.09 -58.204,48.267 0,32.179 19.432,48.236 58.325,48.174 l 14.678,-0.124 h 14.559 29.116 l -0.144,-35.734 z m 77.484,59.523 v 0 -142.659 0 -1.579 h 163 v 24.132 h -139.722 v 36.201 h 139.481 v 24.134 h -139.481 v 36.231 h 139.481 v 24.133 h -162.759 z m -329.939,-120.355 58.325,0.124 c 38.893,-0.092 58.263,15.965 58.113,48.144 v 72.68 h 23.282 v -72.432 c 0,-48.267 -26.921,-72.494 -80.794,-72.649 h -81.966 v 18.085 18.115 36.201 72.43 h 23.04 l 0.121,-96.315 v -12.066 z"
   id="path31" /><path
   class="fil0"
   d="m 776.84041,379.34935 h 8.713 l -3.201,-7.131 c -0.182,-0.459 -0.38,-0.985 -0.576,-1.576 -0.197,-0.589 -0.402,-1.246 -0.598,-1.975 -0.175,0.685 -0.35,1.328 -0.547,1.917 -0.189,0.591 -0.387,1.131 -0.583,1.634 z m 14.058,12.287 -3.551,-8.057 h -12.381 l -3.633,8.057 h -5.344 l 15.145,-32.513 15.124,32.513 z m 30.6,-31.274 h 5.018 v 18.987 c 0,2.822 0.649,4.936 1.954,6.359 1.306,1.415 3.253,2.121 5.842,2.121 2.58,0 4.52,-0.706 5.825,-2.121 1.305,-1.423 1.954,-3.537 1.954,-6.359 v -18.987 h 5.082 v 19.462 c 0,4.228 -1.064,7.393 -3.2,9.493 -2.137,2.1 -5.36,3.15 -9.654,3.15 -4.303,0 -7.519,-1.05 -9.64,-3.143 -2.122,-2.092 -3.181,-5.256 -3.181,-9.5 z m 65.968,4.317 v 26.957 h -5.082 v -26.957 h -8.313 v -4.317 h 21.664 v 4.317 z m 60.541,11.382 c 0,-1.575 -0.291,-3.077 -0.866,-4.506 -0.577,-1.423 -1.4,-2.692 -2.487,-3.8 -1.05,-1.101 -2.275,-1.94 -3.661,-2.529 -1.392,-0.591 -2.85,-0.89 -4.389,-0.89 -1.539,0 -3.004,0.291 -4.39,0.874 -1.385,0.584 -2.626,1.43 -3.704,2.545 -1.08,1.094 -1.911,2.356 -2.48,3.777 -0.568,1.43 -0.852,2.939 -0.852,4.529 0,1.583 0.284,3.077 0.852,4.491 0.569,1.407 1.4,2.669 2.48,3.777 1.078,1.116 2.311,1.963 3.696,2.545 1.378,0.584 2.845,0.876 4.398,0.876 1.523,0 2.974,-0.292 4.346,-0.876 1.371,-0.582 2.61,-1.429 3.704,-2.545 1.087,-1.108 1.91,-2.37 2.487,-3.791 0.575,-1.415 0.866,-2.91 0.866,-4.477 z m 5.302,0 c 0,2.224 -0.415,4.324 -1.246,6.3 -0.84,1.984 -2.049,3.747 -3.646,5.301 -1.612,1.553 -3.428,2.742 -5.447,3.566 -2.02,0.823 -4.142,1.239 -6.366,1.239 -2.254,0 -4.398,-0.416 -6.439,-1.246 -2.048,-0.84 -3.85,-2.021 -5.418,-3.559 -1.597,-1.554 -2.808,-3.31 -3.632,-5.279 -0.822,-1.961 -1.239,-4.069 -1.239,-6.322 0,-2.239 0.417,-4.346 1.239,-6.322 0.824,-1.984 2.035,-3.756 3.632,-5.323 1.598,-1.553 3.405,-2.734 5.426,-3.544 2.019,-0.809 4.163,-1.218 6.431,-1.218 2.252,0 4.382,0.409 6.394,1.218 2.021,0.81 3.821,1.991 5.419,3.544 1.597,1.583 2.806,3.369 3.646,5.353 0.831,1.99 1.246,4.082 1.246,6.292 z m 54.51199,0.13 c -0.058,-0.247 -0.154,-0.91 -0.277,-2.012 -0.117,-0.911 -0.212,-1.662 -0.3,-2.26 -0.131,0.707 -0.313,1.422 -0.547,2.137 -0.233,0.707 -0.532,1.436 -0.881,2.179 l -8.18199,16.663 -8.182,-17.005 c -0.343,-0.701 -0.641,-1.378 -0.89,-2.035 -0.247,-0.655 -0.466,-1.297 -0.648,-1.939 -0.015,0.656 -0.073,1.342 -0.16,2.057 -0.095,0.722 -0.233,1.472 -0.417,2.259 l -3.353,15.401 h -4.682 l 7.395,-32.602 9.223,19.739 c 0.146,0.314 0.365,0.832 0.657,1.56 0.291,0.73 0.64,1.626 1.057,2.692 0.298,-0.897 0.766,-2.035 1.407,-3.42 0.167,-0.365 0.3,-0.65 0.386,-0.853 l 9.01299,-19.718 7.561,32.602 h -4.717 z m 42.021,3.158 h 8.714 l -3.202,-7.131 c -0.182,-0.459 -0.379,-0.985 -0.575,-1.576 -0.198,-0.589 -0.402,-1.246 -0.598,-1.975 -0.175,0.685 -0.35,1.328 -0.548,1.917 -0.189,0.591 -0.386,1.131 -0.582,1.634 z m 14.058,12.287 -3.551,-8.057 h -12.381 l -3.632,8.057 h -5.344 l 15.145,-32.513 15.123,32.513 z m 56.597,-23.669 c -1.436,-1.225 -2.96,-2.144 -4.558,-2.757 -1.604,-0.612 -3.288,-0.918 -5.052,-0.918 -3.421,0 -6.199,1.094 -8.342,3.288 -2.144,2.196 -3.215,5.039 -3.215,8.525 0,3.376 1.042,6.161 3.127,8.356 2.086,2.194 4.718,3.289 7.898,3.289 1.844,0 3.609,-0.329 5.286,-0.985 1.67,-0.657 3.274,-1.64 4.813,-2.967 v 5.745 c -1.364,0.985 -2.859,1.714 -4.463,2.195 -1.612,0.489 -3.354,0.729 -5.235,0.729 -2.392,0 -4.601,-0.393 -6.636,-1.173 -2.027,-0.787 -3.814,-1.94 -5.352,-3.465 -1.524,-1.494 -2.691,-3.258 -3.515,-5.286 -0.817,-2.028 -1.225,-4.193 -1.225,-6.482 0,-2.297 0.408,-4.448 1.225,-6.46 0.824,-2.021 2.005,-3.786 3.558,-5.309 1.553,-1.539 3.332,-2.706 5.346,-3.493 2.005,-0.794 4.178,-1.189 6.511,-1.189 1.837,0 3.588,0.27 5.257,0.803 1.663,0.533 3.281,1.341 4.849,2.421 z m -15.232,32.068 v -2.259 c 1.153,0.27 2.151,0.466 2.99,0.598 0.838,0.124 1.567,0.189 2.179,0.189 0.744,0 1.291,-0.123 1.649,-0.365 0.357,-0.24 0.531,-0.605 0.531,-1.086 0,-0.554 -0.226,-0.963 -0.67,-1.21 -0.452,-0.249 -1.174,-0.373 -2.173,-0.373 -0.102,0 -0.24,0.008 -0.423,0.023 -0.189,0.014 -0.336,0.022 -0.452,0.022 v -3.938 h 1.837 v 1.845 h 0.365 c 1.598,0 2.785,0.306 3.573,0.926 0.795,0.62 1.189,1.553 1.189,2.785 0,1.182 -0.438,2.093 -1.313,2.727 -0.875,0.635 -2.136,0.948 -3.77,0.948 -0.699,0 -1.509,-0.066 -2.435,-0.204 -0.926,-0.131 -1.954,-0.342 -3.077,-0.628 z m 51.31,-20.686 h 8.714 l -3.202,-7.131 c -0.182,-0.459 -0.379,-0.985 -0.575,-1.576 -0.198,-0.589 -0.402,-1.246 -0.598,-1.975 -0.175,0.685 -0.35,1.328 -0.547,1.917 -0.189,0.591 -0.387,1.131 -0.583,1.634 z m 14.058,12.287 -3.551,-8.057 h -12.381 l -3.632,8.057 h -5.344 l 15.144,-32.513 15.124,32.513 z m -3.5,-39.667 c -0.254,1.407 -0.75,2.501 -1.487,3.274 -0.729,0.78 -1.626,1.167 -2.676,1.167 -0.189,0 -0.373,-0.007 -0.561,-0.03 -0.182,-0.021 -0.373,-0.058 -0.576,-0.102 l -2.647,-0.678 c -0.226,-0.044 -0.401,-0.073 -0.51,-0.087 -0.118,-0.015 -0.219,-0.023 -0.3,-0.023 -0.503,0 -0.89,0.117 -1.174,0.343 -0.291,0.226 -0.51,0.598 -0.664,1.108 h -1.925 c 0.328,-1.509 0.824,-2.631 1.488,-3.36 0.656,-0.738 1.509,-1.102 2.552,-1.102 0.212,0 0.43,0.014 0.649,0.044 0.219,0.029 0.438,0.073 0.657,0.124 l 2.493,0.664 c 0.117,0.028 0.248,0.051 0.387,0.065 0.145,0.014 0.35,0.022 0.62,0.022 0.444,0 0.808,-0.124 1.108,-0.371 0.298,-0.249 0.517,-0.606 0.641,-1.058 z m 61.759,24.092 c 0,-1.575 -0.291,-3.077 -0.866,-4.506 -0.578,-1.423 -1.4,-2.692 -2.488,-3.8 -1.049,-1.101 -2.274,-1.94 -3.66,-2.529 -1.392,-0.591 -2.85,-0.89 -4.389,-0.89 -1.539,0 -3.004,0.291 -4.39,0.874 -1.385,0.584 -2.626,1.43 -3.704,2.545 -1.08,1.094 -1.911,2.356 -2.48,3.777 -0.568,1.43 -0.852,2.939 -0.852,4.529 0,1.583 0.284,3.077 0.852,4.491 0.569,1.407 1.4,2.669 2.48,3.777 1.078,1.116 2.31,1.963 3.696,2.545 1.378,0.584 2.845,0.876 4.398,0.876 1.523,0 2.974,-0.292 4.345,-0.876 1.371,-0.582 2.611,-1.429 3.704,-2.545 1.088,-1.108 1.91,-2.37 2.488,-3.791 0.575,-1.415 0.866,-2.91 0.866,-4.477 z m 5.302,0 c 0,2.224 -0.415,4.324 -1.246,6.3 -0.84,1.984 -2.05,3.747 -3.647,5.301 -1.611,1.553 -3.427,2.742 -5.446,3.566 -2.021,0.823 -4.142,1.239 -6.366,1.239 -2.254,0 -4.398,-0.416 -6.439,-1.246 -2.049,-0.84 -3.851,-2.021 -5.418,-3.559 -1.597,-1.554 -2.808,-3.31 -3.632,-5.279 -0.823,-1.961 -1.239,-4.069 -1.239,-6.322 0,-2.239 0.416,-4.346 1.239,-6.322 0.824,-1.984 2.035,-3.756 3.632,-5.323 1.597,-1.553 3.405,-2.734 5.426,-3.544 2.018,-0.809 4.163,-1.218 6.431,-1.218 2.252,0 4.382,0.409 6.394,1.218 2.021,0.81 3.821,1.991 5.418,3.544 1.597,1.583 2.807,3.369 3.647,5.353 0.831,1.99 1.246,4.082 1.246,6.292 z m 68.708,15.575 v -31.274 h 5.082 v 31.274 z m 35.568,0 v -32.513 l 19.863,19.118 c 0.547,0.539 1.094,1.116 1.648,1.729 0.554,0.612 1.137,1.304 1.749,2.077 v -21.685 h 4.704 v 32.492 l -20.272,-19.462 c -0.539,-0.524 -1.064,-1.078 -1.568,-1.662 -0.51,-0.592 -0.992,-1.197 -1.443,-1.838 v 21.744 z m 63.4,-4.594 h 4.273 c 2.349,0 4.114,-0.153 5.288,-0.466 1.173,-0.314 2.193,-0.847 3.069,-1.583 1.181,-1.013 2.063,-2.268 2.654,-3.77 0.591,-1.502 0.89,-3.251 0.89,-5.249 0,-1.991 -0.299,-3.742 -0.89,-5.243 -0.591,-1.502 -1.473,-2.757 -2.654,-3.77 -0.883,-0.736 -1.947,-1.269 -3.172,-1.583 -1.232,-0.313 -3.164,-0.466 -5.782,-0.466 h -1.838 -1.838 z m -5.081,4.594 v -31.274 h 6.853 c 4.463,0 7.598,0.225 9.414,0.67 1.816,0.452 3.405,1.204 4.776,2.254 1.809,1.386 3.18,3.158 4.112,5.323 0.934,2.166 1.401,4.637 1.401,7.408 0,2.778 -0.467,5.243 -1.401,7.387 -0.932,2.143 -2.303,3.908 -4.112,5.308 -1.371,1.05 -2.924,1.802 -4.666,2.253 -1.751,0.445 -4.462,0.671 -8.153,0.671 h -1.371 z m 55.437,-31.274 h 5.017 v 18.987 c 0,2.822 0.65,4.936 1.954,6.359 1.306,1.415 3.253,2.121 5.842,2.121 2.58,0 4.52,-0.706 5.826,-2.121 1.304,-1.423 1.953,-3.537 1.953,-6.359 v -18.987 h 5.082 v 19.462 c 0,4.228 -1.064,7.393 -3.2,9.493 -2.137,2.1 -5.36,3.15 -9.654,3.15 -4.303,0 -7.519,-1.05 -9.64,-3.143 -2.122,-2.092 -3.18,-5.256 -3.18,-9.5 z m 54.067,25.011 4.054,-1.875 c 0.386,1.393 1.094,2.458 2.116,3.187 1.027,0.736 2.34,1.102 3.929,1.102 1.51,0 2.712,-0.424 3.602,-1.262 0.889,-0.839 1.335,-1.962 1.335,-3.369 0,-1.838 -1.524,-3.479 -4.572,-4.915 -0.431,-0.211 -0.751,-0.371 -0.985,-0.467 -3.441,-1.683 -5.738,-3.201 -6.883,-4.564 -1.144,-1.357 -1.721,-3.026 -1.721,-4.987 0,-2.552 0.868,-4.616 2.596,-6.199 1.728,-1.583 3.996,-2.37 6.804,-2.37 2.303,0 4.236,0.445 5.789,1.334 1.553,0.89 2.625,2.173 3.223,3.836 l -3.975,2.048 c -0.626,-0.983 -1.311,-1.698 -2.063,-2.149 -0.743,-0.461 -1.604,-0.687 -2.574,-0.687 -1.364,0 -2.449,0.358 -3.252,1.064 -0.809,0.715 -1.211,1.672 -1.211,2.867 0,1.881 1.765,3.632 5.302,5.25 0.27,0.131 0.482,0.233 0.634,0.299 3.092,1.429 5.213,2.822 6.373,4.179 1.152,1.363 1.729,3.062 1.729,5.096 0,2.961 -0.933,5.315 -2.801,7.059 -1.867,1.742 -4.382,2.617 -7.561,2.617 -2.661,0 -4.842,-0.612 -6.548,-1.837 -1.699,-1.225 -2.814,-2.976 -3.34,-5.257 z m 59.092,-20.694 v 26.957 h -5.084 v -26.957 h -8.312 v -4.317 h 21.664 v 4.317 z m 40.415,9.012 h 0.919 c 2.69,0 4.478,-0.313 5.361,-0.941 0.88,-0.627 1.327,-1.735 1.327,-3.332 0,-1.721 -0.475,-2.932 -1.423,-3.638 -0.948,-0.708 -2.705,-1.057 -5.265,-1.057 h -0.919 z m -0.32,3.953 v 13.992 h -4.762 v -31.274 h 7.088 c 2.078,0 3.697,0.138 4.842,0.407 1.144,0.27 2.121,0.715 2.938,1.343 0.969,0.758 1.714,1.735 2.246,2.931 0.525,1.196 0.788,2.502 0.788,3.93 0,2.501 -0.605,4.463 -1.816,5.884 -1.21,1.415 -3.004,2.268 -5.367,2.552 l 10.77,14.227 h -5.745 l -10.406,-13.992 z m 43.005,13.992 v -31.274 h 5.083 v 31.274 z m 42.168,-12.287 h 8.713 l -3.201,-7.131 c -0.182,-0.459 -0.38,-0.985 -0.576,-1.576 -0.197,-0.589 -0.402,-1.246 -0.598,-1.975 -0.175,0.685 -0.35,1.328 -0.547,1.917 -0.189,0.591 -0.386,1.131 -0.583,1.634 z m 14.058,12.287 -3.551,-8.057 h -12.381 l -3.633,8.057 h -5.344 l 15.145,-32.513 15.124,32.513 z m 31.491,0 v -31.274 h 5.082 v 26.724 h 11.368 v 4.55 z"
   id="path34"
   style="fill:#ffffff;fill-opacity:1" /><path
   class="fil2"
   d="m 167.91041,418.52535 -143.272,-149.051 c -19.199,-19.972 -19.199,-52.655 0,-72.628 l 164.566,-171.204 c 14.364,-14.941 35.562,-18.703 53.37,-11.29 l -65.006,67.636 -68.078,70.834 c -45.454,47.295 -48.668,91.131 -9.744,131.616 l 20.265,20.244 c 38.42,39.965 80.205,36.454 125.358,-10.525 l -37.122,-38.612 c 15.685,-12.778 32.315,-10.095 49.883,7.898 19.463,20.558 20.669,39.705 3.523,57.544 l -26.446,27.517 z"
   id="path36"
   style="fill:#ffffff;fill-opacity:1" /><g
   clip-path="url(#id0)"
   id="g41"
   transform="translate(-155.67059,-568.19765)">
    <g
   id="g39">
     <path
   id="_1"
   class="fil3"
   d="m 379.783,1140.652 c 155.327,0 281.245,-90.578 281.245,-202.311 0,-111.734 -125.918,-202.311 -281.245,-202.311 -155.327,0 -281.245,90.577 -281.245,202.311 0,111.733 125.918,202.311 281.245,202.311 z"
   mask="url(#id1)" />
    </g>
   </g><path
   class="fil4"
   d="m 167.91041,418.52535 -143.272,-149.051 c -19.199,-19.972 -19.199,-52.655 0,-72.628 l 164.566,-171.204 c 14.364,-14.941 35.562,-18.703 53.37,-11.29 l -65.006,67.636 -68.078,70.834 c -45.454,47.295 -48.668,91.131 -9.744,131.616 l 20.265,20.244 c 38.42,39.965 80.205,36.454 125.358,-10.525 l -37.122,-38.612 c 15.685,-12.778 32.315,-10.095 49.883,7.898 19.463,20.558 20.669,39.705 3.523,57.544 l -26.446,27.517 z"
   id="path43" /><path
   class="fil5"
   d="m 283.88841,51.51135 139.699,145.335 c 19.199,19.973 19.199,52.656 0,72.628 l -164.566,171.204 c -12.947,13.468 -31.451,17.851 -48.018,13.155 l 17.924,-18.648 68.13,-70.888 c 45.404,-47.241 48.669,-91.13 9.747,-131.614 l -20.266,-20.245 c -38.422,-39.963 -80.206,-36.454 -125.356,10.524 l 37.068,38.559 c -15.684,12.796 -32.306,10.195 -49.834,-7.845 -19.51,-20.506 -20.671,-39.703 -3.524,-57.542 l 26.447,-27.52 z"
   id="path45" /><g
   clip-path="url(#id3)"
   id="g50"
   transform="translate(-155.67059,-568.19765)">
    <g
   id="g48">
     <path
   id="_1_0"
   class="fil3"
   d="m 379.783,1140.652 c 155.327,0 281.245,-90.578 281.245,-202.311 0,-111.734 -125.918,-202.311 -281.245,-202.311 -155.327,0 -281.245,90.577 -281.245,202.311 0,111.733 125.918,202.311 281.245,202.311 z"
   mask="url(#id4)" />
    </g>
   </g><path
   class="fil4"
   d="m 283.88841,51.51135 139.699,145.335 c 19.199,19.973 19.199,52.656 0,72.628 l -164.566,171.204 c -12.947,13.468 -31.451,17.851 -48.018,13.155 l 17.924,-18.648 68.13,-70.888 c 45.404,-47.241 48.669,-91.13 9.747,-131.614 l -20.266,-20.245 c -38.422,-39.963 -80.206,-36.454 -125.356,10.524 l 37.068,38.559 c -15.684,12.796 -32.306,10.195 -49.834,-7.845 -19.51,-20.506 -20.671,-39.703 -3.524,-57.542 l 26.447,-27.52 z"
   id="path52" />
</svg>
